<svg width="17" height="17" viewBox="0 0 17 17" fill="none" xmlns="http://www.w3.org/2000/svg">
<path d="M8.922 8.5L13.4404 4.23237C13.9087 3.76407 14.1667 3.14151 14.1667 2.47918C14.1667 1.1123 13.0544 0 11.6876 0C11.0276 0 10.4065 0.256295 9.93884 0.722168L3.55969 6.74681C3.21451 7.09162 2.9807 7.52536 2.88318 8.00232C2.84998 8.16764 2.83337 8.33505 2.83337 8.50003C2.83337 8.66502 2.84998 8.8324 2.88318 8.99947C2.98073 9.47504 3.21451 9.90841 3.5666 10.2598L9.93469 16.2737C10.403 16.742 11.0256 17 11.6876 17C13.0544 17 14.1667 15.8877 14.1667 14.5208C14.1667 13.8582 13.9087 13.2356 13.4335 12.7607L8.922 8.5Z" fill="#676769"/>
</svg>
