<svg id="Layer_1" fill="#fff" enable-background="new 0 0 64 64" viewBox="0 0 64 64" xmlns="http://www.w3.org/2000/svg"><g><path d="m58.683 16.319c-.85-.851-1.981-1.319-3.183-1.319h-33v-4.5c0-.829-.671-1.5-1.5-1.5h-8c-.829 0-1.5.671-1.5 1.5v4.5h-3c-1.203 0-2.333.468-3.181 1.317-.851.85-1.319 1.98-1.319 3.183v31c0 1.202.468 2.333 1.318 3.182.849.849 1.979 1.318 3.182 1.318h47c1.202 0 2.332-.468 3.182-1.318s1.318-1.98 1.318-3.182v-31c0-1.203-.469-2.333-1.317-3.181zm-44.183-4.319h5v3h-5zm42.5 38.5c0 .4-.156.777-.439 1.061s-.661.439-1.061.439h-47c-.395 0-.781-.16-1.061-.44-.283-.283-.439-.66-.439-1.06v-31c0-.401.156-.777.44-1.062.283-.282.659-.438 1.06-.438h47c.4 0 .777.156 1.061.44.279.279.439.665.439 1.06z"></path><path d="m38.5 24c-6.065 0-11 4.935-11 11s4.935 11 11 11 11-4.935 11-11-4.935-11-11-11zm0 19c-4.411 0-8-3.589-8-8s3.589-8 8-8 8 3.589 8 8-3.589 8-8 8z"></path><path d="m13 23c-.829 0-1.5.671-1.5 1.5v21c0 .828.671 1.5 1.5 1.5s1.5-.672 1.5-1.5v-21c0-.829-.671-1.5-1.5-1.5z"></path><path d="m52.25 21c-.828 0-1.5.671-1.5 1.5s.672 1.5 1.5 1.5h.094c.828 0 1.453-.671 1.453-1.5s-.719-1.5-1.547-1.5z"></path></g></svg>