<svg width="32" height="32" viewBox="0 0 32 32" fill="none" xmlns="http://www.w3.org/2000/svg">
<g clip-path="url(#clip0_30_55)">
<path d="M30.792 1.20853C29.9864 0.402722 29.021 0 27.8964 0H4.10447C2.97942 0 2.01431 0.402868 1.20851 1.20853C0.402844 2.01397 0.00012207 2.97922 0.00012207 4.10406V27.8957C0.00012207 29.0204 0.402771 29.9859 1.20851 30.7914C2.01431 31.597 2.97964 32 4.10447 32H27.8961C29.0205 32 29.9862 31.597 30.7918 30.7914C31.5976 29.9859 32 29.0204 32 27.8957V4.10406C31.9999 2.979 31.5976 2.01427 30.792 1.20853ZM11.4901 11.5311C12.7469 10.316 14.2574 9.70816 16.0213 9.70816C17.7988 9.70816 19.3161 10.316 20.5732 11.5311C21.8304 12.7464 22.4586 14.2153 22.4586 15.9375C22.4586 17.6594 21.8304 19.1284 20.5732 20.3433C19.3161 21.5589 17.7993 22.1667 16.0213 22.1667C14.2575 22.1667 12.7471 21.5584 11.4901 20.3433C10.2329 19.1282 9.60444 17.6594 9.60444 15.9375C9.60444 14.2153 10.2329 12.7465 11.4901 11.5311ZM28.3756 27.0419C28.3756 27.4027 28.2502 27.7047 28.0004 27.9479C27.7499 28.1909 27.4517 28.3125 27.1042 28.3125H4.83373C4.47268 28.3125 4.17036 28.1909 3.92752 27.9479C3.68431 27.7052 3.56281 27.4027 3.56281 27.0419V13.5414H6.50022C6.22257 14.4165 6.08371 15.3264 6.08371 16.2706C6.08371 18.9379 7.05582 21.2118 9.00025 23.0942C10.9449 24.9758 13.2851 25.917 16.0212 25.917C17.8268 25.917 19.4933 25.4863 21.0216 24.6252C22.5494 23.7636 23.757 22.5938 24.6465 21.1145C25.5355 19.6352 25.9799 18.0205 25.9799 16.2707C25.9799 15.3265 25.8406 14.4168 25.5629 13.5415H28.3757V27.042H28.3756V27.0419ZM28.3756 8.43724C28.3756 8.84003 28.2367 9.18036 27.9585 9.45809C27.6808 9.73603 27.3407 9.87482 26.9377 9.87482H23.3128C22.9102 9.87482 22.5696 9.73596 22.292 9.45809C22.0142 9.18036 21.8755 8.84003 21.8755 8.43724V5.00005C21.8755 4.61112 22.0142 4.27437 22.292 3.98957C22.5697 3.70491 22.9103 3.5624 23.3128 3.5624H26.9377C27.3407 3.5624 27.6809 3.70484 27.9585 3.98957C28.2366 4.27437 28.3756 4.61112 28.3756 5.00005V8.43724Z" fill="white"/>
</g>
<defs>
<clipPath id="clip0_30_55">
<rect width="32" height="32" fill="white"/>
</clipPath>
</defs>
</svg>
