<svg width="17" height="17" viewBox="0 0 17 17" fill="none" xmlns="http://www.w3.org/2000/svg">
<g clip-path="url(#clip0_12_60)">
<path d="M8.078 8.5L3.55962 12.7676C3.09133 13.2359 2.83331 13.8585 2.83331 14.5208C2.83327 15.8877 3.94558 17 5.31245 17C5.97236 17 6.59353 16.7437 7.06116 16.2778L13.4403 10.2532C13.7855 9.90838 14.0193 9.47464 14.1168 8.99768C14.15 8.83236 14.1666 8.66495 14.1666 8.49997C14.1666 8.33498 14.15 8.1676 14.1168 8.00053C14.0193 7.52496 13.7855 7.09159 13.4334 6.7402L7.06531 0.726283C6.59698 0.25802 5.97442 -7.16185e-07 5.31245 -7.74057e-07C3.94558 -8.93553e-07 2.83327 1.1123 2.83327 2.47918C2.83327 3.14184 3.09129 3.7644 3.5665 4.23927L8.078 8.5Z" fill="#BDBBBB"/>
</g>
<defs>
<clipPath id="clip0_12_60">
<rect width="17" height="17" fill="white" transform="translate(17 17) rotate(-180)"/>
</clipPath>
</defs>
</svg>
